<svg xmlns="http://www.w3.org/2000/svg" viewBox="0 0 137.33 25.64"><defs><style>.cls-1{fill:#232323;}.cls-2{fill:#fff;}.cls-3{fill:#e53935;}.cls-4{fill:#00acc1;}</style></defs><g id="Lager_2" data-name="Lager 2"><g id="Layer_1" data-name="Layer 1"><path class="cls-1" d="M9,5.06c2.34,0,3.54,1.4,3.54,3.84v.49H10.23V8.75c0-1.09-.43-1.51-1.2-1.51s-1.2.42-1.2,1.51.48,1.95,2.06,3.32c2,1.77,2.64,3,2.64,4.79,0,2.45-1.22,3.85-3.58,3.85s-3.59-1.4-3.59-3.85v-.94H7.63V17c0,1.1.48,1.49,1.25,1.49s1.25-.39,1.25-1.49-.49-1.94-2.06-3.32c-2-1.77-2.64-3-2.64-4.79C5.43,6.46,6.63,5.06,9,5.06Z"/><path class="cls-1" d="M16.09,9.45h0V20.53H13.88V5.23h3l2.43,9.16h0V5.23h2.14v15.3H19Z"/><path class="cls-1" d="M25.64,11.68h3.3v2.19h-3.3v4.48H29.8v2.18H23.24V5.23H29.8V7.42H25.64Z"/><path class="cls-1" d="M39.06,20.53H36.64l-.42-2.77H33.27l-.41,2.77H30.65L33.1,5.23h3.51Zm-5.48-4.85h2.31L34.76,7.94h0Z"/><path class="cls-1" d="M43.32,14.43l-.74,1.4v4.7h-2.4V5.23h2.4v6.63h.05l3.1-6.63h2.4l-3.34,6.82,3.34,8.48H45.66Z"/><path class="cls-1" d="M51.63,11.68h3.3v2.19h-3.3v4.48h4.15v2.18H49.23V5.23h6.55V7.42H51.63Z"/><path class="cls-1" d="M62.3,20.53a4.5,4.5,0,0,1-.22-1.88v-2.4c0-1.42-.48-1.95-1.58-1.95h-.83v6.23h-2.4V5.23H60.9c2.49,0,3.56,1.16,3.56,3.52V10c0,1.58-.5,2.58-1.57,3.09v0c1.2.5,1.59,1.64,1.59,3.23v2.36a4.51,4.51,0,0,0,.26,1.86ZM59.67,7.42v4.7h.94c.9,0,1.45-.4,1.45-1.62V9c0-1.09-.38-1.57-1.23-1.57Z"/><path class="cls-1" d="M69.29,5.06c2.34,0,3.54,1.4,3.54,3.84v.49H70.56V8.75c0-1.09-.44-1.51-1.21-1.51s-1.2.42-1.2,1.51.48,1.95,2.06,3.32c2,1.77,2.64,3,2.64,4.79,0,2.45-1.22,3.85-3.58,3.85s-3.59-1.4-3.59-3.85v-.94H68V17c0,1.1.48,1.49,1.24,1.49s1.25-.39,1.25-1.49-.48-1.94-2.06-3.32c-2-1.77-2.64-3-2.64-4.79C65.75,6.46,67,5.06,69.29,5.06Z"/><path class="cls-1" d="M73.53,5.23H81V7.42H78.45V20.53H76V7.42H73.53Z"/><path class="cls-1" d="M81.81,8.9c0-2.44,1.29-3.84,3.65-3.84s3.65,1.4,3.65,3.84v8c0,2.45-1.29,3.85-3.65,3.85s-3.65-1.4-3.65-3.85ZM84.22,17c0,1.1.48,1.51,1.24,1.51s1.25-.41,1.25-1.51V8.75c0-1.09-.48-1.51-1.25-1.51s-1.24.42-1.24,1.51Z"/><path class="cls-1" d="M95.69,20.53a4.69,4.69,0,0,1-.22-1.88v-2.4c0-1.42-.48-1.95-1.57-1.95h-.83v6.23H90.66V5.23h3.63c2.49,0,3.56,1.16,3.56,3.52V10c0,1.58-.5,2.58-1.57,3.09v0c1.2.5,1.6,1.64,1.6,3.23v2.36a4.51,4.51,0,0,0,.26,1.86ZM93.07,7.42v4.7H94c.89,0,1.44-.4,1.44-1.62V9c0-1.09-.37-1.57-1.22-1.57Z"/><path class="cls-1" d="M101.85,11.68h3.3v2.19h-3.3v4.48H106v2.18H99.45V5.23H106V7.42h-4.16Z"/><path class="cls-1" d="M121,.05a2.92,2.92,0,0,1,.57.93,5.28,5.28,0,0,0,.42.79c0,.06.08,0,.13.17h13.4v21.8H1.9V1.94H109.76A20.81,20.81,0,0,1,111.71.05H0V25.64H137.33V.05Z"/><path class="cls-1" d="M132,20.79c0-.92-4.77-1.67-10.64-1.67s-10.65.75-10.65,1.67,4.77,1.67,10.65,1.67S132,21.71,132,20.79Z"/><path class="cls-2" d="M114.82,4s-1.71,1.16-1.74,2.24c.71,1.32,8.55,9.43,11,10.76s3.91,2.54,5.94,2.8L131.57,18l-9.3-7.36Z"/><path class="cls-3" d="M118.34.44S115.58,2.09,114.82,4c.75,1.33,6.93,8.56,10.1,10.37s4.83,3.27,6.2,3.23c-.43-.42-2.41-3.63-2.41-3.63l-1.49-3.81A20.54,20.54,0,0,1,126,6.34a8.74,8.74,0,0,0-.49-2.1L124.14,4l-.92-.26s-1.08,1.38-2.3-.24S119.15.26,118.34.44Z"/><path class="cls-4" d="M116.7,1.64a5.3,5.3,0,0,1-.53,4.14c1.45,1.8,4.85,5.32,4.85,5.32l3.24,2.82,1.45-1.07-3.4-8.63s-2.7-.14-3.71-1.61a12,12,0,0,0-.26-2.17Z"/><path class="cls-1" d="M130.12,20.27l-.11,0a22.57,22.57,0,0,1-8.39-4.84,32.93,32.93,0,0,1-3.55-3.55,50.14,50.14,0,0,1-4.62-4.75c-.54-.68-.62-1-.55-1.11a7.49,7.49,0,0,1,1.58-2.34l.28-.28.11.38c.21.75,1.28,1.86,3,3.72.72.75,1.54,1.6,2.48,2.61a32.46,32.46,0,0,0,9,6.74c1.15.57,1.53.52,1.62.49a.41.41,0,0,1,.29,0,.35.35,0,0,1,.19.24l.11.36v0a1.66,1.66,0,0,1-.44,1,1.77,1.77,0,0,0-.26.39,2.54,2.54,0,0,1-.66.85ZM113.34,6.12c.06.17.55,1.17,5,5.41l0,0a34.26,34.26,0,0,0,3.51,3.51A22.28,22.28,0,0,0,130,19.77a2.15,2.15,0,0,0,.44-.6,2.31,2.31,0,0,1,.32-.49,1.26,1.26,0,0,0,.34-.69l-.07-.21a3.46,3.46,0,0,1-1.89-.53,33.37,33.37,0,0,1-9.09-6.84c-.94-1-1.75-1.86-2.47-2.61a19,19,0,0,1-3-3.55A6.2,6.2,0,0,0,113.34,6.12Z"/><path class="cls-1" d="M131,17.64a9.83,9.83,0,0,0-1.38-2.06,25.42,25.42,0,0,1-1.85-2.88v0a27,27,0,0,1-2-7.29l-.32-.81a.33.33,0,0,0-.3-.2l-1.11,0-.07-.08c-.32-.32-.47-.41-.54-.42s-.11,0-.23.13a1.55,1.55,0,0,1-.67.36c-.54.12-2,.24-3.59-1.37a2.26,2.26,0,0,1-.66-2.3v0A20.53,20.53,0,0,0,114.82,4l-.35-.3c.1-.12,2.56-3,3.74-3.49h.06a.34.34,0,0,1,.32.1c.13.14.1.33,0,.57a1.82,1.82,0,0,0,.53,1.88c1.48,1.45,2.71,1.36,3.16,1.25a1.1,1.1,0,0,0,.49-.27.71.71,0,0,1,.58-.22,1.35,1.35,0,0,1,.74.48l.9,0a.77.77,0,0,1,.75.49l.34.87v0a26.34,26.34,0,0,0,2,7.17,24,24,0,0,0,1.79,2.8,10.2,10.2,0,0,1,1.46,2.18Z"/><path class="cls-1" d="M116.28,6l-.37-.29a4.58,4.58,0,0,0,.51-4l.44-.16A5,5,0,0,1,116.28,6Z"/><rect class="cls-1" x="123.93" y="3.84" width="0.46" height="9.27" transform="translate(5 44.37) rotate(-20.67)"/><path class="cls-1" d="M124.44,14l-.36-.3a4.89,4.89,0,0,1,3.81-1.49v.46A4.45,4.45,0,0,0,124.44,14Z"/><path class="cls-1" d="M122.39,4.41c-1,0-1.88-.85-2.69-2.57a1.92,1.92,0,0,0-1.32-1.2l.06-.46a2.37,2.37,0,0,1,1.68,1.47c.5,1.06,1.29,2.31,2.26,2.3Z"/><path class="cls-1" d="M121,14.45l-.39-.25A2.35,2.35,0,0,1,122.8,13a2.91,2.91,0,0,1,1.17.38l-.25.39A2,2,0,0,0,121,14.45Z"/><path class="cls-1" d="M122.39,13.38A32.79,32.79,0,0,1,120,11.07c-.31-.31-.59-.61-.88-.89A70.45,70.45,0,0,1,114,4.54l.18-.14A74.73,74.73,0,0,0,119.3,10l.87.9c.74.76,1.5,1.55,2.37,2.3Z"/><path class="cls-1" d="M116.1,2.41a.11.11,0,0,1-.13-.1v0a.14.14,0,1,1,.26-.08v0a.14.14,0,0,1-.1.17Z"/><path class="cls-1" d="M115.93,5h-.05a.13.13,0,0,1-.08-.17l0-.08a.13.13,0,0,1,.17-.08.13.13,0,0,1,.08.17l0,.08A.12.12,0,0,1,115.93,5Zm.19-.62h0a.13.13,0,0,1-.1-.16l0-.08a.12.12,0,0,1,.15-.1.13.13,0,0,1,.11.16.31.31,0,0,1,0,.08A.14.14,0,0,1,116.12,4.36Zm.09-.65h0a.13.13,0,0,1-.12-.14V3.49a.13.13,0,0,1,.14-.13.13.13,0,0,1,.13.14v.08A.14.14,0,0,1,116.21,3.71Zm0-.65a.13.13,0,0,1-.14-.13.19.19,0,0,1,0-.08.13.13,0,0,1,.12-.14.13.13,0,0,1,.15.12v.08a.14.14,0,0,1-.12.15Z"/><path class="cls-1" d="M115.68,5.53a.08.08,0,0,1-.07,0,.15.15,0,0,1-.06-.19l0,0a.13.13,0,0,1,.18,0,.12.12,0,0,1,.06.18l0,0A.12.12,0,0,1,115.68,5.53Z"/><path class="cls-1" d="M124.67,13.21h0l-.08,0a.14.14,0,1,1,.11-.25l.07,0a.12.12,0,0,1,.07.17A.16.16,0,0,1,124.67,13.21Zm-.56-.27H124l-.07,0a.15.15,0,0,1,0-.19.14.14,0,0,1,.19,0l.06,0a.13.13,0,0,1,.06.18A.13.13,0,0,1,124.11,12.94Zm-.51-.34a.11.11,0,0,1-.09,0l-.06-.05a.13.13,0,0,1,0-.19.14.14,0,0,1,.19,0l.06,0a.15.15,0,0,1,0,.19A.14.14,0,0,1,123.6,12.6Zm-.45-.42a.16.16,0,0,1-.11,0l-.05-.06a.15.15,0,0,1,0-.19.13.13,0,0,1,.19,0l0,.06a.13.13,0,0,1,0,.19A.11.11,0,0,1,123.15,12.18Zm-.36-.5a.14.14,0,0,1-.11,0l-.05-.06a.14.14,0,0,1,.21-.17l0,.06a.14.14,0,0,1,0,.19A.13.13,0,0,1,122.79,11.68Zm-.41-.47a.11.11,0,0,1-.1,0l0-.05a.13.13,0,1,1,.19-.19l.06.05a.14.14,0,0,1,0,.2A.12.12,0,0,1,122.38,11.21Zm-.45-.42a.09.09,0,0,1-.09,0l-.06,0a.14.14,0,0,1,.17-.21l.06.05a.13.13,0,0,1,0,.19A.13.13,0,0,1,121.93,10.79Zm-.5-.36a.13.13,0,0,1-.08,0l-.06,0a.14.14,0,0,1,0-.19.13.13,0,0,1,.18,0l.07,0a.14.14,0,0,1,0,.19A.13.13,0,0,1,121.43,10.43Zm-.54-.3h-.06l-.07,0a.14.14,0,0,1-.07-.18.14.14,0,0,1,.18-.07l.08,0a.14.14,0,0,1,.06.18A.14.14,0,0,1,120.89,10.13Zm-.57-.23h0l-.07,0a.13.13,0,0,1-.09-.16.13.13,0,0,1,.17-.09l.08,0a.13.13,0,0,1,0,.26Zm-.6-.14h-.09a.14.14,0,0,1-.13-.14.14.14,0,0,1,.15-.13h.08a.13.13,0,0,1,.12.15A.14.14,0,0,1,119.72,9.76Z"/><path class="cls-1" d="M124.78,14.41a.14.14,0,0,1-.11-.06.13.13,0,0,1,0-.18l.07-.05a.13.13,0,0,1,.19,0,.14.14,0,0,1,0,.19l-.06,0A.13.13,0,0,1,124.78,14.41Zm.52-.34a.12.12,0,0,1-.12-.07.13.13,0,0,1,0-.18l.07,0a.14.14,0,0,1,.19,0,.15.15,0,0,1,0,.19l-.07,0Zm.54-.3a.16.16,0,0,1-.13-.08.15.15,0,0,1,.06-.18l.07,0a.15.15,0,0,1,.19.06.14.14,0,0,1-.07.18l-.07,0Zm.56-.25a.13.13,0,0,1-.05-.26l.07,0a.14.14,0,0,1,.18.08.13.13,0,0,1-.08.17l-.07,0Zm.59-.19a.13.13,0,0,1-.13-.1.14.14,0,0,1,.09-.17l.08,0a.14.14,0,0,1,.16.1.13.13,0,0,1-.1.17H127Zm1.24-.1h0a.14.14,0,0,1-.11-.16.13.13,0,0,1,.15-.11h0a.13.13,0,0,1,.11.15A.13.13,0,0,1,128.23,13.23Zm-.63,0a.14.14,0,0,1-.14-.12.14.14,0,0,1,.12-.15h.08a.15.15,0,0,1,.15.13.14.14,0,0,1-.13.14h-.08Z"/><path class="cls-1" d="M123,5.89a.14.14,0,0,1-.14-.13.15.15,0,0,1,.13-.14h.08a.14.14,0,0,1,.14.13.13.13,0,0,1-.13.14Zm-.54,0h-.08a.12.12,0,0,1-.13-.14.13.13,0,0,1,.13-.13h.08a.13.13,0,0,1,.13.14A.13.13,0,0,1,122.45,5.9Zm-.61,0h-.1a.14.14,0,0,1-.12-.15.14.14,0,0,1,.15-.12h.07a.13.13,0,0,1,.13.14A.16.16,0,0,1,121.84,5.87Zm-.61-.08h-.11a.14.14,0,0,1-.11-.16.14.14,0,0,1,.16-.11l.07,0a.12.12,0,0,1,.11.15A.14.14,0,0,1,121.23,5.79Zm-.61-.13h0l-.07,0a.13.13,0,0,1-.1-.16.14.14,0,0,1,.17-.1l.07,0a.14.14,0,0,1,.1.17A.17.17,0,0,1,120.62,5.66ZM120,5.48h0l-.07,0a.14.14,0,0,1-.09-.17.15.15,0,0,1,.18-.09l.07,0a.13.13,0,0,1,.08.17A.14.14,0,0,1,120,5.48Zm-.58-.22h0l-.08,0a.13.13,0,0,1-.06-.17.13.13,0,0,1,.17-.07l.07,0a.14.14,0,0,1,.07.18A.12.12,0,0,1,119.45,5.26ZM118.9,5l-.07,0-.07,0a.14.14,0,0,1-.05-.19.13.13,0,0,1,.18,0l.07,0a.14.14,0,0,1,.05.19A.12.12,0,0,1,118.9,5Zm-.53-.31-.08,0-.07,0a.13.13,0,0,1,0-.18.13.13,0,0,1,.19,0l.06,0a.12.12,0,0,1,0,.18A.12.12,0,0,1,118.37,4.68Zm-.51-.36-.09,0-.06,0a.13.13,0,0,1,0-.19.14.14,0,0,1,.19,0l.06,0a.13.13,0,0,1,0,.19A.12.12,0,0,1,117.86,4.32Zm-.47-.39a.13.13,0,0,1-.1,0l-.06-.05a.14.14,0,0,1,0-.19.14.14,0,0,1,.2,0l0,0a.13.13,0,0,1,0,.19A.14.14,0,0,1,117.39,3.93ZM117,3.49a.16.16,0,0,1-.11-.05l0-.06a.14.14,0,0,1,.21-.17l0,0a.13.13,0,0,1,0,.19A.12.12,0,0,1,117,3.49Z"/><path class="cls-1" d="M126.76,11.58a.23.23,0,0,1-.14-.41,1.62,1.62,0,0,1,.68-.32.23.23,0,0,1,.27.18.23.23,0,0,1-.19.27,1.36,1.36,0,0,0-.49.24A.2.2,0,0,1,126.76,11.58Z"/><rect class="cls-1" x="124.19" y="4.12" width="0.46" height="1.95" transform="translate(7.71 48.51) rotate(-22.75)"/><path class="cls-2" d="M125.83,6.76a.23.23,0,0,1-.14,0A3.35,3.35,0,0,0,123.94,6a.24.24,0,0,1-.23-.24.23.23,0,0,1,.23-.23,3.79,3.79,0,0,1,2,.85.25.25,0,0,1,.05.33A.21.21,0,0,1,125.83,6.76Z"/><path class="cls-3" d="M125.82,6.82a.34.34,0,0,1-.17-.05A3.37,3.37,0,0,0,123.94,6a.3.3,0,0,1-.29-.3.29.29,0,0,1,.29-.29h0a3.88,3.88,0,0,1,2.06.86.31.31,0,0,1,.11.19.28.28,0,0,1,0,.22.27.27,0,0,1-.23.12h0Zm-1.88-1.26a.17.17,0,0,0-.17.16.17.17,0,0,0,.17.17,3.47,3.47,0,0,1,1.78.78.2.2,0,0,0,.11,0,.17.17,0,0,0,.13-.07.15.15,0,0,0,0-.13.19.19,0,0,0-.07-.11,3.73,3.73,0,0,0-2-.83Z"/><path class="cls-2" d="M124.92,6.53a.27.27,0,0,1-.18-.08.23.23,0,0,1,0-.32,3,3,0,0,1,1.16-.71.23.23,0,0,1,.12.45,2.56,2.56,0,0,0-1,.59A.26.26,0,0,1,124.92,6.53Z"/><path class="cls-3" d="M124.91,6.59a.31.31,0,0,1-.21-.09.3.3,0,0,1,0-.42,2.94,2.94,0,0,1,1.19-.72.29.29,0,0,1,.14.57,2.47,2.47,0,0,0-.93.58.27.27,0,0,1-.19.08ZM126,5.48h0a3,3,0,0,0-1.13.69.16.16,0,0,0,0,.24.13.13,0,0,0,.13,0,.15.15,0,0,0,.11,0,2.4,2.4,0,0,1,1-.61.17.17,0,0,0,.12-.21A.16.16,0,0,0,126,5.48Z"/><path class="cls-2" d="M125.5,7.52a.23.23,0,0,1-.13-.43c.6-.38.9-.23,1-.18a.23.23,0,0,1,.06.32.24.24,0,0,1-.3.08s-.17,0-.49.17A.19.19,0,0,1,125.5,7.52Z"/><path class="cls-3" d="M125.49,7.58a.3.3,0,0,1-.25-.14.28.28,0,0,1,0-.22.26.26,0,0,1,.13-.18c.63-.4,1-.24,1-.18a.29.29,0,0,1,.13.19.3.3,0,0,1-.05.22.3.3,0,0,1-.37.1s-.16,0-.44.17a.33.33,0,0,1-.15,0Zm.58-.68a1.28,1.28,0,0,0-.67.24.19.19,0,0,0-.07.11.15.15,0,0,0,0,.13.19.19,0,0,0,.15.09h0a.12.12,0,0,0,.08,0c.34-.21.5-.19.55-.18h0a.17.17,0,0,0,.22,0,.16.16,0,0,0,0-.24A.44.44,0,0,0,126.07,6.9Z"/><path class="cls-2" d="M125.74,8.5a.25.25,0,0,1-.21-.12.24.24,0,0,1,.09-.32,2.65,2.65,0,0,1,.87-.31.22.22,0,0,1,.26.2.23.23,0,0,1-.19.26,2.11,2.11,0,0,0-.71.26Z"/><path class="cls-3" d="M125.74,8.56a.3.3,0,0,1-.26-.15.29.29,0,0,1,0-.22.28.28,0,0,1,.14-.18,2.64,2.64,0,0,1,.89-.32.29.29,0,0,1,.33.25.28.28,0,0,1-.24.33,2.11,2.11,0,0,0-.69.25.33.33,0,0,1-.13,0Zm.78-.75h0a2.55,2.55,0,0,0-.85.31.16.16,0,0,0-.08.1.2.2,0,0,0,0,.13.16.16,0,0,0,.15.08h0a.11.11,0,0,0,.08,0,2.21,2.21,0,0,1,.73-.26.18.18,0,0,0,.14-.19A.16.16,0,0,0,126.52,7.81Z"/><path class="cls-2" d="M125.94,9.53a.24.24,0,0,1-.21-.12.23.23,0,0,1,.09-.31,3.06,3.06,0,0,1,.87-.32A.25.25,0,0,1,127,9a.22.22,0,0,1-.2.26,2.51,2.51,0,0,0-.71.26A.17.17,0,0,1,125.94,9.53Z"/><path class="cls-3" d="M125.93,9.59a.31.31,0,0,1-.26-.15.3.3,0,0,1,.12-.4,2.57,2.57,0,0,1,.89-.32.3.3,0,0,1,.22.06A.31.31,0,0,1,127,9a.29.29,0,0,1-.25.33,2.55,2.55,0,0,0-.68.25.35.35,0,0,1-.14,0h0Zm.79-.75h0a2.58,2.58,0,0,0-.85.3.18.18,0,0,0-.07.23.17.17,0,0,0,.16.09l.07,0a2.59,2.59,0,0,1,.73-.27.17.17,0,0,0,.15-.19.19.19,0,0,0-.07-.11A.18.18,0,0,0,126.72,8.84Z"/><path class="cls-2" d="M126.2,10.14A.25.25,0,0,1,126,10a.23.23,0,0,1,.09-.31,2.54,2.54,0,0,1,.87-.32.22.22,0,0,1,.26.2.23.23,0,0,1-.19.26,2.11,2.11,0,0,0-.71.26A.19.19,0,0,1,126.2,10.14Z"/><path class="cls-3" d="M126.19,10.2a.28.28,0,0,1-.26-.15.29.29,0,0,1,.11-.4,2.72,2.72,0,0,1,.89-.32.31.31,0,0,1,.34.25.29.29,0,0,1-.25.33,2.33,2.33,0,0,0-.69.25.22.22,0,0,1-.13,0Zm.78-.75h0a2.84,2.84,0,0,0-.85.31.17.17,0,0,0,.09.32h0l.08,0a2.29,2.29,0,0,1,.73-.27.16.16,0,0,0,.14-.19A.16.16,0,0,0,127,9.45Z"/><path class="cls-2" d="M125.87,7.76a.31.31,0,0,1-.13,0A6.13,6.13,0,0,0,124.16,7a.24.24,0,0,1-.17-.28.23.23,0,0,1,.28-.17,6.5,6.5,0,0,1,1.71.76.23.23,0,0,1,.08.32A.21.21,0,0,1,125.87,7.76Z"/><path class="cls-3" d="M125.86,7.83a.3.3,0,0,1-.15,0,6.15,6.15,0,0,0-1.57-.7.3.3,0,0,1-.21-.36.34.34,0,0,1,.13-.18.29.29,0,0,1,.22,0,6.32,6.32,0,0,1,1.73.77.28.28,0,0,1,.1.4.3.3,0,0,1-.24.15Zm-1.65-1.21a.11.11,0,0,0-.08,0,.16.16,0,0,0-.08.1.18.18,0,0,0,.12.21,6.08,6.08,0,0,1,1.6.72l.1,0h0a.17.17,0,0,0,.14-.08.18.18,0,0,0-.06-.23,6.23,6.23,0,0,0-1.7-.76Z"/><path class="cls-2" d="M126.84,9.14a.22.22,0,0,1-.17,0,4.93,4.93,0,0,0-2.16-1,.24.24,0,0,1-.2-.26.23.23,0,0,1,.25-.2A5.28,5.28,0,0,1,127,8.73a.23.23,0,0,1,0,.32A.26.26,0,0,1,126.84,9.14Z"/><path class="cls-3" d="M126.81,9.21a.27.27,0,0,1-.17-.06,5,5,0,0,0-2.13-1,.29.29,0,0,1,.06-.58A5.26,5.26,0,0,1,127,8.68a.3.3,0,0,1,.07.41.28.28,0,0,1-.2.12h0Zm-2.27-1.49a.16.16,0,0,0-.17.15.18.18,0,0,0,.15.19,5,5,0,0,1,2.19,1,.14.14,0,0,0,.12,0A.19.19,0,0,0,127,9a.17.17,0,0,0,0-.23,5.24,5.24,0,0,0-2.35-1.06Z"/><path class="cls-2" d="M127.06,10.52a.24.24,0,0,1-.18-.07A4.69,4.69,0,0,0,125,9.11a.23.23,0,0,1,.1-.45,5,5,0,0,1,2.09,1.47.25.25,0,0,1,0,.33A.22.22,0,0,1,127.06,10.52Z"/><path class="cls-3" d="M127.05,10.58a.27.27,0,0,1-.21-.09A4.85,4.85,0,0,0,125,9.17a.26.26,0,0,1-.18-.13.33.33,0,0,1,0-.22.31.31,0,0,1,.14-.18.28.28,0,0,1,.22,0,5,5,0,0,1,2.11,1.48.3.3,0,0,1,0,.42.27.27,0,0,1-.19.08Zm-2-1.86-.09,0a.19.19,0,0,0-.07.11.15.15,0,0,0,0,.13.14.14,0,0,0,.1.07,4.75,4.75,0,0,1,1.89,1.35.15.15,0,0,0,.13,0h0a.15.15,0,0,0,.11,0,.17.17,0,0,0,0-.24,4.85,4.85,0,0,0-2-1.45Z"/><path class="cls-2" d="M127.53,11.58a.21.21,0,0,1-.18-.06,5,5,0,0,0-2-1.35.24.24,0,0,1-.18-.27.23.23,0,0,1,.27-.18,5.13,5.13,0,0,1,2.24,1.47.22.22,0,0,1,0,.32A.21.21,0,0,1,127.53,11.58Z"/><path class="cls-3" d="M127.51,11.65a.32.32,0,0,1-.21-.08,5,5,0,0,0-2-1.34.29.29,0,0,1-.23-.34.3.3,0,0,1,.35-.23,5.22,5.22,0,0,1,2.26,1.48.29.29,0,0,1,.09.21.32.32,0,0,1-.08.21.31.31,0,0,1-.18.09Zm-2.12-1.87a.17.17,0,0,0-.17.13.19.19,0,0,0,.14.2,5.16,5.16,0,0,1,2,1.37.18.18,0,0,0,.14,0h0a.16.16,0,0,0,.1,0,.17.17,0,0,0,0-.24,5.09,5.09,0,0,0-2.2-1.45Z"/><path class="cls-2" d="M127.53,12.12a.24.24,0,0,1-.16,0,3.84,3.84,0,0,0-1.6-1,.2.2,0,0,1-.16-.23.21.21,0,0,1,.24-.15,4.06,4.06,0,0,1,1.81,1.11.18.18,0,0,1,0,.27A.2.2,0,0,1,127.53,12.12Z"/><path class="cls-3" d="M127.52,12.18a.26.26,0,0,1-.19-.07,3.86,3.86,0,0,0-1.57-1,.27.27,0,0,1-.18-.11.26.26,0,0,1,0-.19.26.26,0,0,1,.31-.2,4.08,4.08,0,0,1,1.85,1.12.27.27,0,0,1,.08.19.27.27,0,0,1-.08.18.29.29,0,0,1-.18.07Zm-1.71-1.44a.13.13,0,0,0-.14.1.12.12,0,0,0,0,.1.15.15,0,0,0,.09.06,3.9,3.9,0,0,1,1.64,1,.12.12,0,0,0,.1,0,.15.15,0,0,0,.1,0,.12.12,0,0,0,0-.09.1.1,0,0,0,0-.09,4.17,4.17,0,0,0-1.78-1.1Z"/><path class="cls-2" d="M126.21,12.34a.27.27,0,0,1-.27-.16.24.24,0,0,1,.18-.3,6.19,6.19,0,0,1,1.64-.21.25.25,0,0,1,.25.25.27.27,0,0,1-.29.22,5.92,5.92,0,0,0-1.44.19Z"/><path class="cls-3" d="M126.2,12.4a.35.35,0,0,1-.32-.2.34.34,0,0,1,0-.22.38.38,0,0,1,.21-.16,6.22,6.22,0,0,1,1.65-.21.41.41,0,0,1,.24.11.31.31,0,0,1,.07.21.33.33,0,0,1-.36.27,5.66,5.66,0,0,0-1.41.19h-.1Zm1.4-.67a6.46,6.46,0,0,0-1.46.21.22.22,0,0,0-.13.1.16.16,0,0,0,0,.12.22.22,0,0,0,.21.12h.05a6.06,6.06,0,0,1,1.46-.19c.11,0,.22-.07.22-.16a.16.16,0,0,0,0-.12.29.29,0,0,0-.16-.07Z"/><path class="cls-1" d="M118.34.44a2.55,2.55,0,0,0,1.09,2.79c1.58.94,2.29.73,2.29.73s-1.53-1.88-1.94-2.46S118.88.18,118.34.44Z"/><path class="cls-2" d="M110.69,3.94s-1.88,1.18-2,2.33c.71,1.45,8.78,10.48,11.35,12s4.09,2.89,6.26,3.25c.34-.38,1.75-1.85,1.75-1.85l-9.68-8.3Z"/><path class="cls-3" d="M114.61.29s-3,1.66-3.92,3.65c.75,1.46,7.09,9.48,10.41,11.55s5.05,3.72,6.52,3.74c-.44-.48-2.43-4-2.43-4l-1.45-4.16A22.53,22.53,0,0,1,122.55,7a9.22,9.22,0,0,0-.43-2.27l-1.42-.37-1-.31s-1.21,1.44-2.45-.35S115.5.14,114.61.29Z"/><path class="cls-4" d="M112.8,1.51a5.66,5.66,0,0,1-.73,4.43c1.48,2,5,5.92,5,5.92L120.41,15l1.6-1.08-3.29-9.41s-2.89-.26-3.91-1.88a13.07,13.07,0,0,0-.2-2.35Z"/><path class="cls-1" d="M126.44,22.09l-.12,0a24.12,24.12,0,0,1-8.81-5.55,35,35,0,0,1-3.66-3.95,56.18,56.18,0,0,1-4.76-5.29c-.55-.75-.63-1-.55-1.22a8.2,8.2,0,0,1,1.8-2.45l.31-.29.1.42c.2.81,1.3,2,3.13,4.12.74.83,1.57,1.78,2.54,2.91a35.08,35.08,0,0,0,9.35,7.61c1.2.66,1.62.62,1.72.59a.38.38,0,0,1,.31,0,.36.36,0,0,1,.19.26l.11.39v.05a1.79,1.79,0,0,1-.51,1,1.73,1.73,0,0,0-.3.41,2.84,2.84,0,0,1-.74.88ZM109,6.18c0,.19.53,1.29,5.19,6l0,0a35.59,35.59,0,0,0,3.63,3.92,24,24,0,0,0,8.48,5.39,2.33,2.33,0,0,0,.49-.62,2.49,2.49,0,0,1,.37-.52,1.3,1.3,0,0,0,.39-.73l-.06-.22a3.75,3.75,0,0,1-2-.65A36,36,0,0,1,116,11.07c-1-1.13-1.8-2.07-2.54-2.9a20.94,20.94,0,0,1-3.09-3.94A6.81,6.81,0,0,0,109,6.18Z"/><path class="cls-1" d="M127.44,19.29A10.43,10.43,0,0,0,126.05,17a25.28,25.28,0,0,1-1.87-3.18v0a29.14,29.14,0,0,1-1.88-7.91L122,5a.33.33,0,0,0-.31-.23h-1.19l-.08-.08c-.32-.37-.48-.46-.56-.47s-.12,0-.25.13a1.7,1.7,0,0,1-.74.35c-.58.11-2.1.17-3.79-1.62a2.45,2.45,0,0,1-.62-2.49V.58a22.1,22.1,0,0,0-3.76,3.36l-.36-.33c.11-.13,2.87-3.12,4.16-3.59l0,0h0a.42.42,0,0,1,.34.12c.13.16.08.36,0,.62a1.92,1.92,0,0,0,.49,2c1.52,1.62,2.84,1.58,3.34,1.48a1.15,1.15,0,0,0,.53-.26.77.77,0,0,1,.63-.22,1.52,1.52,0,0,1,.78.54h1a.84.84,0,0,1,.78.56l.33,1v0a29,29,0,0,0,1.85,7.78,26.52,26.52,0,0,0,1.8,3.07,10.73,10.73,0,0,1,1.47,2.41Z"/><path class="cls-1" d="M112.17,6.2l-.38-.32c1.46-1.7.72-4.21.71-4.24l.48-.15A5.39,5.39,0,0,1,112.17,6.2Z"/><rect class="cls-1" x="120.28" y="4.18" width="0.5" height="9.97" transform="matrix(0.95, -0.32, 0.32, 0.95, 3.29, 38.59)"/><path class="cls-1" d="M120.6,15.15l-.37-.33a5.25,5.25,0,0,1,4.15-1.45l0,.5A4.8,4.8,0,0,0,120.6,15.15Z"/><path class="cls-1" d="M118.8,4.73c-1,0-2-1-2.78-2.87A2,2,0,0,0,114.65.52l.08-.49a2.49,2.49,0,0,1,1.75,1.64c.49,1.15,1.29,2.54,2.33,2.56Z"/><path class="cls-1" d="M116.84,15.45l-.41-.29a2.53,2.53,0,0,1,2.45-1.2,3.22,3.22,0,0,1,1.25.46l-.29.41A2.09,2.09,0,0,0,116.84,15.45Z"/><path class="cls-1" d="M118.43,14.36A34.81,34.81,0,0,1,116,11.78c-.31-.35-.6-.68-.9-1a78.22,78.22,0,0,1-5.26-6.27l.2-.15a77.14,77.14,0,0,0,5.25,6.25c.29.31.59.64.9,1,.76.85,1.54,1.72,2.45,2.56Z"/><path class="cls-1" d="M112.13,2.32a.15.15,0,0,1-.14-.11v0a.14.14,0,0,1,.11-.17.14.14,0,0,1,.17.1.12.12,0,0,1,0,0,.14.14,0,0,1-.11.17Z"/><path class="cls-1" d="M111.84,5.07h0a.14.14,0,0,1-.08-.19l0-.08a.15.15,0,0,1,.19-.08.14.14,0,0,1,.08.19L112,5A.15.15,0,0,1,111.84,5.07Zm.23-.66h0a.14.14,0,0,1-.1-.17l0-.09a.14.14,0,0,1,.17-.1.13.13,0,0,1,.11.17s0,.06,0,.09A.16.16,0,0,1,112.07,4.41Zm.12-.69h0a.15.15,0,0,1-.13-.16.28.28,0,0,1,0-.09.13.13,0,0,1,.15-.13.16.16,0,0,1,.14.16.28.28,0,0,0,0,.09A.15.15,0,0,1,112.19,3.72Zm0-.7a.15.15,0,0,1-.15-.14V2.79a.13.13,0,0,1,.13-.15.16.16,0,0,1,.16.14v.09a.15.15,0,0,1-.14.15Z"/><path class="cls-1" d="M111.55,5.66a.13.13,0,0,1-.08,0,.14.14,0,0,1,0-.19l0,0a.15.15,0,1,1,.25.15l0,0A.14.14,0,0,1,111.55,5.66Z"/><path class="cls-1" d="M120.88,14.27h-.06l-.07,0a.14.14,0,0,1-.08-.19.15.15,0,0,1,.2-.07l.07,0a.14.14,0,0,1,.07.19A.13.13,0,0,1,120.88,14.27Zm-.59-.31a.1.1,0,0,1-.07,0l-.07,0a.15.15,0,0,1-.05-.2.15.15,0,0,1,.2,0l.07,0a.15.15,0,0,1-.08.27Zm-.54-.38a.12.12,0,0,1-.09,0l-.06,0a.15.15,0,1,1,.19-.22l.06.05a.15.15,0,0,1,0,.21A.17.17,0,0,1,119.75,13.58Zm-.46-.48a.16.16,0,0,1-.11,0l-.05-.07a.14.14,0,1,1,.23-.17l0,.06a.14.14,0,0,1,0,.2A.12.12,0,0,1,119.29,13.1Zm-.37-.55a.13.13,0,0,1-.11-.06l0-.06a.15.15,0,0,1,0-.21.15.15,0,0,1,.2,0l.05.07a.14.14,0,0,1,0,.2Zm-.41-.52a.15.15,0,0,1-.11,0l-.05-.06a.15.15,0,0,1,0-.21.14.14,0,0,1,.2,0l.06.06a.15.15,0,0,1,0,.21A.19.19,0,0,1,118.51,12Zm-.47-.46a.21.21,0,0,1-.1,0l-.06,0a.15.15,0,0,1,0-.21.13.13,0,0,1,.2,0l.07.05a.15.15,0,0,1,0,.21A.16.16,0,0,1,118,11.57Zm-.52-.41a.11.11,0,0,1-.08,0l-.07-.05a.14.14,0,0,1,0-.2.16.16,0,0,1,.2,0l.07.05a.14.14,0,0,1,0,.2A.15.15,0,0,1,117.52,11.16Zm-.57-.35a.07.07,0,0,1-.06,0l-.08,0a.15.15,0,0,1-.06-.2.14.14,0,0,1,.19-.06.2.2,0,0,1,.08,0,.14.14,0,0,1-.07.27Zm-.6-.27h0l-.08,0a.16.16,0,0,1-.09-.19.14.14,0,0,1,.19-.09l.08,0a.15.15,0,0,1,.08.19A.14.14,0,0,1,116.35,10.54Zm-.64-.18h-.1a.15.15,0,1,1,0-.29h.09a.15.15,0,0,1,.12.17A.14.14,0,0,1,115.71,10.36Z"/><path class="cls-1" d="M121,15.56a.14.14,0,0,1-.12-.06.15.15,0,0,1,0-.2l.07-.05a.15.15,0,0,1,.2,0,.14.14,0,0,1,0,.2l-.07,0A.11.11,0,0,1,121,15.56Zm.57-.34a.16.16,0,0,1-.13-.08.14.14,0,0,1,.06-.19l.07,0a.15.15,0,0,1,.2.06.14.14,0,0,1-.06.19l-.07,0Zm.59-.3a.16.16,0,0,1-.13-.08.14.14,0,0,1,.07-.19l.08,0a.14.14,0,0,1,.19.08.15.15,0,0,1-.07.19l-.08,0Zm.62-.24a.15.15,0,0,1-.14-.1.15.15,0,0,1,.09-.18l.08,0a.14.14,0,0,1,.19.09.14.14,0,0,1-.1.18l-.07,0Zm.64-.18a.14.14,0,0,1-.14-.12.14.14,0,0,1,.11-.17l.08,0a.15.15,0,0,1,.17.12.14.14,0,0,1-.11.17h-.11Zm1.33-.06h0a.15.15,0,0,1,0-.29h0a.15.15,0,0,1,.12.17A.14.14,0,0,1,124.7,14.44Zm-.67,0a.15.15,0,1,1,0-.29h.08a.15.15,0,0,1,.15.14.14.14,0,0,1-.14.15Z"/><path class="cls-1" d="M119.39,6.35a.15.15,0,0,1-.15-.15.15.15,0,0,1,.15-.14h.08a.14.14,0,0,1,.14.14.14.14,0,0,1-.14.15Zm-.58,0h-.1a.15.15,0,0,1-.13-.16.13.13,0,0,1,.15-.13h.08a.15.15,0,0,1,.14.16A.14.14,0,0,1,118.81,6.33Zm-.66-.06H118a.15.15,0,0,1-.12-.17.14.14,0,0,1,.16-.12h.09a.15.15,0,0,1,.12.16A.14.14,0,0,1,118.15,6.27Zm-.66-.11h-.11a.15.15,0,0,1-.11-.18.15.15,0,0,1,.17-.11l.08,0a.15.15,0,0,1,0,.29ZM116.85,6h0l-.08,0a.14.14,0,0,1-.1-.18.15.15,0,0,1,.18-.09l.08,0a.14.14,0,0,1,.1.18A.15.15,0,0,1,116.85,6Zm-.63-.21h0l-.08,0a.15.15,0,0,1-.08-.19.15.15,0,0,1,.19-.08l.07,0a.14.14,0,0,1,.09.19A.16.16,0,0,1,116.22,5.78Zm-.61-.26-.06,0-.08,0a.14.14,0,0,1-.06-.19.15.15,0,0,1,.19-.07l.08,0a.14.14,0,0,1,.06.19A.13.13,0,0,1,115.61,5.52ZM115,5.2a.12.12,0,0,1-.08,0l-.07,0a.15.15,0,0,1,.15-.25l.07,0a.15.15,0,0,1,.05.2A.12.12,0,0,1,115,5.2Zm-.56-.35a.11.11,0,0,1-.08,0l-.07-.05a.14.14,0,1,1,.17-.23l.06,0a.15.15,0,0,1,0,.2A.14.14,0,0,1,114.47,4.85Zm-.53-.4a.18.18,0,0,1-.09,0l-.07,0a.14.14,0,0,1,0-.21.13.13,0,0,1,.2,0l.06.05a.14.14,0,0,1,0,.2A.14.14,0,0,1,113.94,4.45ZM113.45,4a.12.12,0,0,1-.1,0l-.06-.06a.14.14,0,0,1,0-.21.15.15,0,0,1,.2,0l.06.06a.14.14,0,0,1,0,.21A.14.14,0,0,1,113.45,4ZM113,3.51a.14.14,0,0,1-.11,0l-.06-.08a.14.14,0,0,1,0-.2.16.16,0,0,1,.21,0,.17.17,0,0,0,0,.06.15.15,0,0,1,0,.21A.16.16,0,0,1,113,3.51Z"/><path class="cls-1" d="M123.2,12.62a.26.26,0,0,1-.21-.11.25.25,0,0,1,.07-.35,1.86,1.86,0,0,1,.74-.31.24.24,0,0,1,.28.21.25.25,0,0,1-.2.28,1.4,1.4,0,0,0-.54.23A.27.27,0,0,1,123.2,12.62Z"/><rect class="cls-1" x="120.7" y="4.5" width="0.5" height="2.09" transform="translate(5.73 42.74) rotate(-20.52)"/><path class="cls-2" d="M122.4,7.4a.25.25,0,0,1-.16-.06,3.67,3.67,0,0,0-1.84-.89.23.23,0,0,1-.23-.26.23.23,0,0,1,.25-.23,4,4,0,0,1,2.13,1,.24.24,0,0,1,0,.35A.26.26,0,0,1,122.4,7.4Z"/><path class="cls-3" d="M122.4,7.46a.26.26,0,0,1-.19-.07,3.66,3.66,0,0,0-1.81-.87.32.32,0,1,1,0-.63,4.27,4.27,0,0,1,2.16,1,.33.33,0,0,1,.12.21.32.32,0,0,1-.07.23A.3.3,0,0,1,122.4,7.46Zm-2-1.44a.19.19,0,0,0,0,.37,3.75,3.75,0,0,1,1.88.9.19.19,0,0,0,.12,0,.15.15,0,0,0,.14-.07.13.13,0,0,0,0-.13.17.17,0,0,0-.07-.13,3.93,3.93,0,0,0-2.09-1Z"/><path class="cls-2" d="M121.43,7.11a.25.25,0,0,1-.19-.09.24.24,0,0,1,0-.35A3.24,3.24,0,0,1,122.54,6a.25.25,0,0,1,.3.19.26.26,0,0,1-.19.3,2.76,2.76,0,0,0-1.06.6A.23.23,0,0,1,121.43,7.11Z"/><path class="cls-3" d="M121.43,7.17a.28.28,0,0,1-.23-.11.27.27,0,0,1-.08-.22.31.31,0,0,1,.11-.22,3.26,3.26,0,0,1,1.3-.72.31.31,0,0,1,.37.24.32.32,0,0,1-.24.37,2.62,2.62,0,0,0-1,.58A.28.28,0,0,1,121.43,7.17ZM122.59,6h0a3.22,3.22,0,0,0-1.24.7.21.21,0,0,0-.07.12.24.24,0,0,0,.05.14.18.18,0,0,0,.14.06.16.16,0,0,0,.12,0,2.7,2.7,0,0,1,1.08-.61.2.2,0,0,0,.15-.22A.19.19,0,0,0,122.59,6Z"/><path class="cls-2" d="M122,8.2a.25.25,0,0,1-.12-.47c.65-.38,1-.21,1.06-.15a.25.25,0,0,1,0,.35.26.26,0,0,1-.33.07s-.18,0-.53.16A.22.22,0,0,1,122,8.2Z"/><path class="cls-3" d="M122,8.26a.32.32,0,0,1-.27-.16.31.31,0,0,1,0-.23.29.29,0,0,1,.15-.19c.69-.4,1-.22,1.12-.15a.34.34,0,0,1,.13.2.31.31,0,0,1-.06.23.3.3,0,0,1-.4.09.9.9,0,0,0-.48.17A.42.42,0,0,1,122,8.26Zm.61-.71a1.36,1.36,0,0,0-.7.24.14.14,0,0,0-.09.11.22.22,0,0,0,0,.14.18.18,0,0,0,.16.09.13.13,0,0,0,.09,0c.37-.21.55-.19.59-.17h0a.18.18,0,0,0,.24-.05.17.17,0,0,0,0-.14.15.15,0,0,0-.07-.12A.47.47,0,0,0,122.62,7.55Z"/><path class="cls-2" d="M122.23,9.26a.24.24,0,0,1-.22-.14.25.25,0,0,1,.11-.33,2.91,2.91,0,0,1,.95-.3.25.25,0,0,1,.27.22.25.25,0,0,1-.22.27,2.26,2.26,0,0,0-.77.25A.27.27,0,0,1,122.23,9.26Z"/><path class="cls-3" d="M122.23,9.32a.31.31,0,0,1-.14-.59,3.57,3.57,0,0,1,1-.31.32.32,0,0,1,.34.28.31.31,0,0,1-.28.34,2.79,2.79,0,0,0-.75.24A.23.23,0,0,1,122.23,9.32Zm.86-.77h0a2.83,2.83,0,0,0-.92.29.18.18,0,0,0-.08.25.16.16,0,0,0,.16.1.15.15,0,0,0,.09,0,2.3,2.3,0,0,1,.79-.25.19.19,0,0,0,.17-.2A.19.19,0,0,0,123.09,8.55Z"/><path class="cls-2" d="M122.4,10.38a.24.24,0,0,1-.22-.14.24.24,0,0,1,.1-.33,2.65,2.65,0,0,1,1-.3.25.25,0,0,1,0,.49,2.33,2.33,0,0,0-.77.25A.2.2,0,0,1,122.4,10.38Z"/><path class="cls-3" d="M122.4,10.44a.32.32,0,0,1-.28-.17.31.31,0,0,1,.14-.42,3.47,3.47,0,0,1,1-.31.33.33,0,0,1,.34.28.31.31,0,0,1-.28.34,2.42,2.42,0,0,0-.75.24A.23.23,0,0,1,122.4,10.44Zm.86-.77h0a2.92,2.92,0,0,0-.93.29.19.19,0,0,0-.08.25.18.18,0,0,0,.17.1.11.11,0,0,0,.08,0,2.38,2.38,0,0,1,.8-.25.19.19,0,0,0,0-.37Z"/><path class="cls-2" d="M122.65,11a.25.25,0,0,1-.22-.13.24.24,0,0,1,.1-.34,2.91,2.91,0,0,1,1-.3.25.25,0,0,1,.27.22.23.23,0,0,1-.22.27,3.07,3.07,0,0,0-.77.25A.23.23,0,0,1,122.65,11Z"/><path class="cls-3" d="M122.65,11.1a.3.3,0,0,1-.28-.17.31.31,0,0,1,.13-.42,3.09,3.09,0,0,1,1-.3.31.31,0,0,1,.07.62,2.34,2.34,0,0,0-.75.24A.32.32,0,0,1,122.65,11.1Zm.86-.77h0a2.8,2.8,0,0,0-.93.3.18.18,0,0,0-.08.25.19.19,0,0,0,.17.1l.08,0a2.62,2.62,0,0,1,.79-.26.18.18,0,0,0,.17-.2A.18.18,0,0,0,123.51,10.33Z"/><path class="cls-2" d="M122.4,8.48a.24.24,0,0,1-.14-.05,6.87,6.87,0,0,0-1.67-.83.25.25,0,0,1-.17-.31.26.26,0,0,1,.31-.17,7.29,7.29,0,0,1,1.8.9.25.25,0,0,1-.13.46Z"/><path class="cls-3" d="M122.4,8.54a.34.34,0,0,1-.17,0,6.92,6.92,0,0,0-1.66-.83.27.27,0,0,1-.18-.15.31.31,0,0,1,0-.23.32.32,0,0,1,.39-.22,7.24,7.24,0,0,1,1.82.91.26.26,0,0,1,.13.19.33.33,0,0,1,0,.24A.31.31,0,0,1,122.4,8.54Zm-1.74-1.36a.18.18,0,0,0-.18.13.19.19,0,0,0,.13.23,6.86,6.86,0,0,1,1.68.84.23.23,0,0,0,.11,0,.18.18,0,0,0,.15-.08.17.17,0,0,0,0-.14.2.2,0,0,0-.08-.12,7.5,7.5,0,0,0-1.79-.89Z"/><path class="cls-2" d="M123.39,10a.26.26,0,0,1-.19-.05,5.41,5.41,0,0,0-2.27-1.15.25.25,0,0,1-.21-.28.24.24,0,0,1,.28-.21,5.7,5.7,0,0,1,2.51,1.25.24.24,0,0,1,0,.35A.26.26,0,0,1,123.39,10Z"/><path class="cls-3" d="M123.36,10.06a.31.31,0,0,1-.2-.07,5.38,5.38,0,0,0-2.24-1.13.31.31,0,0,1-.26-.35.31.31,0,0,1,.35-.27,6,6,0,0,1,2.54,1.27.3.3,0,0,1,0,.43.28.28,0,0,1-.21.12ZM121,8.37a.18.18,0,0,0-.18.16.18.18,0,0,0,.16.21,5.44,5.44,0,0,1,2.3,1.16.23.23,0,0,0,.14,0,.19.19,0,0,0,.12-.07.19.19,0,0,0,0-.27A5.52,5.52,0,0,0,121,8.37Z"/><path class="cls-2" d="M123.56,11.49a.25.25,0,0,1-.19-.09,5,5,0,0,0-1.93-1.51.25.25,0,1,1,.13-.48,5.25,5.25,0,0,1,2.17,1.66.24.24,0,0,1,0,.35A.24.24,0,0,1,123.56,11.49Z"/><path class="cls-3" d="M123.56,11.55a.32.32,0,0,1-.24-.11,5,5,0,0,0-1.9-1.49.29.29,0,0,1-.19-.15.31.31,0,0,1,0-.23.32.32,0,0,1,.15-.19.31.31,0,0,1,.23,0A5.29,5.29,0,0,1,123.79,11a.31.31,0,0,1,0,.44A.3.3,0,0,1,123.56,11.55ZM121.5,9.46l-.09,0a.2.2,0,0,0-.09.11.22.22,0,0,0,0,.14.19.19,0,0,0,.11.09,5,5,0,0,1,2,1.53.17.17,0,0,0,.14.06.17.17,0,0,0,.18-.17.18.18,0,0,0,0-.14,5.2,5.2,0,0,0-2.15-1.64Z"/><path class="cls-2" d="M124,12.65a.24.24,0,0,1-.19-.08,5.31,5.31,0,0,0-2.1-1.53.25.25,0,0,1-.18-.3.24.24,0,0,1,.3-.18,5.36,5.36,0,0,1,2.33,1.67.24.24,0,0,1,0,.35A.33.33,0,0,1,124,12.65Z"/><path class="cls-3" d="M124,12.71a.28.28,0,0,1-.22-.1,5.43,5.43,0,0,0-2.06-1.51.31.31,0,0,1-.23-.38.32.32,0,0,1,.37-.23,5.71,5.71,0,0,1,2.37,1.69.31.31,0,0,1,.09.22.35.35,0,0,1-.1.22.34.34,0,0,1-.19.09h0Zm-2.21-2.1a.19.19,0,0,0-.18.14.2.2,0,0,0,.14.23,5.37,5.37,0,0,1,2.12,1.55.17.17,0,0,0,.15.05.16.16,0,0,0,.11-.05.18.18,0,0,0,0-.26,5.36,5.36,0,0,0-2.31-1.65Z"/><path class="cls-2" d="M124,13.23a.26.26,0,0,1-.16-.07A4.13,4.13,0,0,0,122.15,12a.2.2,0,0,1-.16-.25.24.24,0,0,1,.27-.16,4.53,4.53,0,0,1,1.89,1.27.21.21,0,0,1,0,.3A.25.25,0,0,1,124,13.23Z"/><path class="cls-3" d="M124,13.29a.27.27,0,0,1-.2-.09,4.15,4.15,0,0,0-1.65-1.13.27.27,0,0,1-.18-.13.24.24,0,0,1,0-.2.29.29,0,0,1,.34-.2,4.58,4.58,0,0,1,1.93,1.29.27.27,0,0,1,.08.19.25.25,0,0,1-.09.19A.3.3,0,0,1,124,13.29Zm-1.79-1.63a.16.16,0,0,0-.15.11.14.14,0,0,0,0,.11.15.15,0,0,0,.1.07,4.25,4.25,0,0,1,1.71,1.17.17.17,0,0,0,.22,0,.12.12,0,0,0,.05-.1.13.13,0,0,0,0-.1,4.28,4.28,0,0,0-1.87-1.25Z"/><path class="cls-2" d="M122.57,13.4a.29.29,0,0,1-.28-.18.25.25,0,0,1,.21-.31,6.57,6.57,0,0,1,1.76-.16.27.27,0,0,1,.26.28.28.28,0,0,1-.32.22,5.62,5.62,0,0,0-1.55.15Z"/><path class="cls-3" d="M122.57,13.47a.35.35,0,0,1-.34-.23.31.31,0,0,1,0-.23.33.33,0,0,1,.22-.16,6.76,6.76,0,0,1,1.78-.16.36.36,0,0,1,.25.13.26.26,0,0,1,.07.22.36.36,0,0,1-.39.28,5.65,5.65,0,0,0-1.53.14Zm1.37-.67a7.22,7.22,0,0,0-1.43.17.19.19,0,0,0-.14.1.15.15,0,0,0,0,.13.24.24,0,0,0,.22.14h.06a5.75,5.75,0,0,1,1.57-.15.23.23,0,0,0,.26-.17.19.19,0,0,0,0-.12.26.26,0,0,0-.17-.09Z"/><path class="cls-1" d="M114.61.29a2.76,2.76,0,0,0,1.06,3.05c1.66,1.08,2.44.88,2.44.88s-1.58-2.08-2-2.73S115.21,0,114.61.29Z"/></g></g></svg>